<svg xmlns="http://www.w3.org/2000/svg" viewBox="0 0 24 24" fill="currentColor">
  <path d="M12 4.85a9.77 9.77 0 0 0-2.6.35L11 7.12A4 4 0 0 1 16.88 13l1.94 1.94A9.34 9.34 0 0 0 21.92 12.4a1 1 0 0 0 0-.8C19.9 6.91 16.1 4 12 4.85ZM3.71 2.29A1 1 0 0 0 2.29 3.71L5.11 6.53C3.42 8.08 2.27 10.15 2.08 11.6a1 1 0 0 0 0 .8C4.1 17.09 7.9 20 12 20a10.33 10.33 0 0 0 4.29-.92l2 2a1 1 0 0 0 1.42 0 1 1 0 0 0 0-1.42ZM12 18c-3.17 0-6.17-2.29-7.9-6a11.38 11.38 0 0 1 2.31-3.19l1.54 1.54A3.94 3.94 0 0 0 8 12a4 4 0 0 0 4 4 3.94 3.94 0 0 0 1.65-.36l1.43 1.43A8.23 8.23 0 0 1 12 18Zm0-8a2 2 0 0 0-.25 0l2.22 2.22A2 2 0 0 0 12 10Z"/>
</svg>
