<svg xmlns="http://www.w3.org/2000/svg" viewBox="0 0 512 512"><path fill="#92baa0" stroke="#92baa0" d="m295.5 40 5 1 1.5-.5-.5 1.5 2-1 2 3 1.5.5-.5 1.5 1.5.5-1 2h2l-1 3h2l-1 5 .5 1.5-1.5.5.5 1.5-4.5 2-.5 2q-1.2-2.3-6-1l-1.5.5-3.5-4.5-1.5-.5 1-2-1.5-3.5-1.5.5q2.3-1.2 1-6l-1-2.5 3-1.5-.5-1.5h2q2.5.7 2-2ZM511.5 53l.5 4.5-37 39 1.5.5q1.4-2.6 6-2L494 83.5 511.5 64l.5 4.5-24 26 4 3q-.7 2.3 1.5 1.5l4.5 7.5v7l-5.5 7.5-4 2-7 1v-2h-4l-6.5-6.5q.8-2.2-1.5-1.5l-3.5 5q-2.7-1.1-2 1.5L430.5 156l-1.5-3.5 35-37V114q2.7 1.1 2-1.5l4-4q-.8-5.3 2-7l-2-.5v1.5L424.5 151l-2-1-1.5.5 9-11.5q2.7 1.1 2-1.5 22.2-20.4 40-43.5 2.7 1.1 2-1.5zM481 97l-2 1-5 5 1 1-1-1-2 4q-1 6 2 9l7 5h5l-1-1h2l4-1q2-1 0-2h2l2-3-1-3h2v-3h-1v-1l-1-4-7-6zM324 65l8.5 1 4-1 3 2 1.5-.5q-.8 2.6 2.5 1.5l1.5-.5-.5 1.5 4 1 1.5-.5.5 1.5 1.5-.5V72q3.8-1.5 3 1.5h2l1.5 2.5 2 1 1.5-.5 1.5 2.5 1.5-.5 1.5 3.5 1-2 3 4 1.5-.5 2.5 4.5 1.5-.5 2 5.5 2 .5-1 2h2v2l1 3.5q3-1.2 2 2.5l2.5 5.5 1.5-.5-1 2h2l-.5 1.5 1.5.5v2l.5 1.5 1.5-.5v2l.5 1.5 1.5-.5-.5 1.5 1.5.5-1 2h2q-3.5 1.5-1 3l1 3-5.5 1.5-3-4-1.5.5q2.7-1.8-1.5-3.5-2.6-.7-1.5 2h-2.5l.5-1.5-1-6 .5-1.5-2.5-1.5 1-2-3-1q2.3-1.3-.5-2.5l-1.5-.5q2.3-1.2-.5-2.5l-1.5-.5q2.5-1.5-1-3l-.5-1.5-1.5.5q2.8-1.7-1.5-3.5l-2.5-1.5-2.5-3.5-2-1-1.5.5-.5-1.5-1.5.5-.5-1.5-1.5.5q.8-2.2-1.5-1.5l-6-3-1.5.5-.5-1.5-1.5.5q.8-2.2-1.5-1.5l-3.5 1.5q-1.1 3.3 1.5 2.5l-.5 1.5q-.7 2.3 1.5 1.5l-.5 1.5q-.7 2.3 1.5 1.5l-.5 1.5.5 1.5 1.5-.5-1 2.5 2 .5-1 2h2l-1 2.5 2 .5-1 2h2l-1 2 2 1-1 2 1 2.5 2 .5-1 1q3.1 1.8 1.5 3.5 2.3-.7 1.5 1.5l-.5 1.5 1.5.5-1 1q3.1 1.7 1.5 3.5l1.5.5-1 2 1 2.5 2 .5v4l.5 1.5 1.5-.5-1 2.5 2 .5-.5 1.5 1.5.5-1 2 1 3.5 2 .5-.5 1.5h1.5v5h1.5l-.5 1.5q-.7 2.3 1.5 1.5v2l1.5.5-1 2 1.5 3.5 1.5-.5-1 2.5 2 .5-1 1q3.1 1.8 1.5 3.5l1.5.5-1 2.5 2 .5-1 2h2l-1 2.5 2 .5-1 2 1 2.5 2 .5-1 2.5 2 .5-1 2h2l-1 2.5 2 .5-1 2 1 2.5q3-1.2 2 2.5l.5 2.5 1.5.5-1 2.5 2 .5-.5 1.5 1.5.5-1 2.5 2 .5-1 2.5 2 .5-37 .5.5-2 1.5.5-1-2 3-2 .5-1.5q1.5 2.5 3-1 3.3 1.1 2.5-1.5h2l.5-1.5 1 2 1.5-2.5-1-2 .5-1.5q-3 .9-1.5-3.5l-1.5-2.5-1.5.5.5-1.5-1.5-.5v-2l-2.5-5.5-1.5.5.5-1.5-1.5-.5q2.5-1.5-1-3 .8-2.2-1.5-1.5l-.5-2.5q.7-2.6-2-1.5v-3.5l-1.5-2.5-1.5.5 1-2h-2l1-2-2.5-3.5-1.5.5.5-1.5-1.5-.5.5-1.5-1.5-.5q2.5-1.5-1-3l-.5-2.5-1.5.5v-2l-2.5-4.5q-2.2.8-1.5-1.5l-1.5.5-2-1-4.5 6-3 1.5q.8 2.3-1.5 1.5l-6.5 8q-2.7-1.1-2 1.5l-3 1-1.5 3.5-1.5-.5-1.5 2.5q-2.2-.7-1.5 1.5l-.5 2.5q-3.4-.9-1.5 4.5l1 4.5-2 .5v7q2.2 1.3 1 6h-2v9l1 5.5-2 .5v10l.5 1.5h-30l-1.5-1.5 2-.5 2.5-4 1.5-.5-.5-1.5 1.5.5.5-1.5 2.5 1 .5-2 1.5.5.5-1.5 2 1q3.8-1.2 2.5-7.5-2.3-1.3-1-6 2.8-1.7 1-8l-1-4 1-1v-13l-1-7.5h2v-3q2.7 1.1 2-1.5-2.2-1.2.5-2.5l1.5.5 3-4-.5-1.5 1.5.5.5-2.5 1.5.5 4.5-8.5 1.5.5 2-3q-2.2-1.2.5-2.5l3.5-2.5-.5-1.5q1.3 2.3 2.5-.5l2-4-1-2 .5-1.5q-2.2.8-1.5-1.5l.5-1.5-1.5-.5 1-2h-2v-4q.8-2.2-1.5-1.5l-1-5-1.5-.5 1-2.5-2-.5 1-2.5-2-.5v-2l-1.5-3.5h-2l-9.5 9.5.5 1.5-1.5-.5-8.5 9.5-4.5 2.5-.5 1.5-2-1v2l-1.5-.5-.5 1.5-2-1v2l-2-1v2l-2-1v2l-1.5-.5-.5 1.5h-2l-6.5 2-.5 2h-2l-1.5.5.5 1.5h-2l-4 2-.5-1.5 1-3h-2q2.8-1.8-1.5-3.5-2.2.8-1.5-1.5h-2l3-1 .5-1.5 2.5 1q-1.2-3 2.5-2l2.5 1 .5-2h2l1.5-.5-.5-1.5h2l1.5-.5-.5-1.5h2l1.5-.5-.5-1.5q1.3 2.3 2.5-.5l.5-1.5q1.3 2.3 2.5-.5l.5-1.5q1.5 2.5 3-1l1.5-.5-.5-1.5 1 1 7.5-7.5-.5-1.5 3.5-2.5-.5-1.5 2.5-1.5-.5-1.5 2.5-1.5q-2.2-1.2.5-2.5l3.5-2.5 1-2-.5-1.5 1.5.5 1-2-.5-1.5 3.5-1 3.5-6q1.3 2.3 2.5-.5l.5-1.5h2q2.3.8 1.5-1.5h2l.5-1.5 1.5.5.5-1.5 1.5.5.5-1.5 2 1v-2l2 1 3.5-1 .5-2 3.5 1zM291.5 115l-1 2zM159.5 133l-1 2z"/><path fill="#92baa0" stroke="#92baa0" d="m333.5 150 1.5.5-6.5 5.5zM416.5 150l2.5.5-2.5.5zM326.5 157l-3 4zM321.5 162l-11 12zM171.5 168l.5 3.5h-1zM174.5 174l.5 3.5h-1zM408.5 177l2.5.5v2l-1 5V216l-2.5 1-.5-38.5zM415 179l4 .5-1 1V216l-3-.5zM131.5 188l.5 3.5h-1zM179.5 199l12.5.5-12.5.5zM160.5 201q6.8-1.7 8.5 1.5l1 2-2 .5 1 2.5-1.5 3.5-1.5-.5-1 3 .5 1.5-1.5.5.5 1.5-1.5-.5-1 2 .5 1.5-1.5-.5q.8 2.3-1.5 1.5l-5.5 6.5.5 1.5q-2.6-.8-1.5 2.5l1 2.5q-3.3-1.3-2 3.5l1 2q-2.7.7-2 5l.5 1.5q-3.4-.9-1.5 4.5l1 2.5q-3.3-1.3-2 3.5l1 3.5q-3-1.2-2 2.5l.5 3.5q-3-.9-1.5 3.5l1 3h-1l-.5-1.5-.5 4.5 1 3.5q-3.3-1.3-2 3.5l1 3h-2l1 6h-2l2 8-.5 1.5 2-1v2l3-1 2 3 5.5 1.5v2q-.7 2.3 1.5 1.5v1l-4 1-1-1H126l.5-3 1 2 .5-2.5v-2l-1-19 2-2v-9l-1-2v-2q-1.2-6.7 2-9v-13l-1-6.5 2-.5v-15q-2.7-1.8-1-8h1l.5 2.5.5-18 27.5-1z"/><path fill="#92baa0" stroke="#92baa0" d="m197.5 203 2 4q1.5-2.5 3 1l1.5.5-.5 1.5 1.5.5-1 1v36l1 2v2l.5 2.5 1.5-.5-.5 1.5 2-1 .5 2 6.5 3 1.5-.5-.5 1.5 2.5.5-.5 1.5 1.5.5-1 2.5h-29.5l-1-1-1.5.5 1-39q-1.3-2.8-2.5-.5l-7-1-3 2-5-1v2l-5-1-3.5 2 3-4.5-.5-1.5 5.5-4.5-2-1 2-1-.5-1.5 1.5-.5v-2l2-3-.5-1.5h1.5l.5-3h22zM321.5 210h19l1.5 1.5 1 5-1 3 1 5v4l-1 6 1 2q-4.8 16.7-17.5 25.5-17.1 9.9-29.5 24.5l-9 17.5-2-.5.5-1.5-1.5-.5q8.3-18.7 23.5-30.5 14.7-8.3 25.5-20.5l6-11 1-5V213l-4 .5v20q-3.4 16.1-15.5 23.5-15.8 9.2-27.5 22.5L283 296q-3.7 1.5-3-1.5 7.9-16.6 21.5-27.5l18-13 8.5-8.5 5-11V213l-4 .5v20q-2.4 10.1-9.5 15.5-17.1 10.4-30.5 24.5L275.5 294l-1.5-2.5q7.7-17.3 21.5-28.5l25.5-19.5 5-10V213l-4 .5v20q-2.4 8.6-9.5 12.5L290 262q1.1 2.7-1.5 2-12.6 11.9-20 29-2.2-.7-1.5 1.5h-1l5-13q7.2-12.3 17.5-21.5l8.5-6.5-5.5-1.5-1 1h-37l-3.5 1.5.5 1.5q-1.8-2.7-3.5 1.5l-3.5 6.5-.5-3.5 7.5-9.5 5-2h47l5.5-3 .5-2q1.8 2.8 3.5-1.5l-.5-2.5h-59l-3 2-2.5-.5 3.5-1.5 3-2h63l1.5-1.5-.5-1.5 1.5-.5v-2l1-5v-16zM94.5 217l.5 3.5h-1zM259.5 228l4.5.5-4.5.5zM180.5 269l2.5.5-2.5.5zM184.5 269l36.5.5-36.5.5zM222.5 269l13.5.5-13.5.5zM176.5 270l-1 2zM380.5 272q3-.9 1.5 3.5l1 2-3 1-2.5 4.5-1-1-3 3-2.5 1.5q2.3 1.3-.5 2.5-1.5-2.5-3 1-3-.8-1.5 3h-2.5l-3.5 2-1.5 4-1-1-3.5 3.5-1.5 2.5-1-1-3.5 3.5-.5 1.5q-1.8-2.7-3.5 1.5 2.3 1.3-.5 2.5l-2.5 1.5-1 3 .5 1.5q-2.6-.8-1.5 2.5l1 3-2 3v2q-1.5 5.5 1 7l-1 2 1 1v66l1.5 1.5 3-1 1 3 1.5-.5-1.5 2.5-1-1H336l-.5-3-1.5.5 1-1-4.5-4.5-2 1 .5-1.5-1-32 1-1V360q-3 1-2-2h-2.5v2l-1.5-.5v43l3.5 2.5 4.5 3.5-17 .5v-32.5l-1-3 1-1v-12h-1l-.5 10.5-.5-22q3.3 1.3 2-3.5l-1-3.5q3.7 1.4 2-4.5l-1-2q2.8-.7 2-5l-1-2h1l.5 1.5.5-3.5-3.5-2.5-2.5 5.5 1 3-2 4 1 3q-2.7.8-2 5l1 3h-2q1.8 10.3-1.5 15.5l-3-1-1.5.5.5-1.5-1.5-.5 1-1v-16l-1-4h1l.5 1.5.5-7.5-1-4h2l-1-8q3.1-1.7 1.5-3.5l1.5.5 2.5-5.5 3-2v-2l1.5.5.5-1.5 1.5.5.5-1.5 1.5.5.5-1.5 2 1q1.5-3.5 3-1 3.3 1.1 2.5-1.5l1.5.5 3-2 3.5 1 .5-2 1.5.5V301h4v-1.5h2V298q3.8 1.5 3-1.5l2.5-.5 1.5-.5-.5-1.5h2l1.5-.5-.5-1.5q1.5 2.5 3-1l2.5-1.5q-.9-3 3.5-1.5v-2h2l1.5-.5-.5-1.5h2l1.5-.5-.5-1.5q1.3 2.3 2.5-.5l.5-1.5q1.3 2.3 2.5-.5V278q3.8 1.5 3-1.5l1.5.5zM314 352l-1 4h1zm24 0-1 16h1zM240.5 276l2.5.5-6.5 4.5h-60v-1l2-1h58l3.5-1zM322.5 277l-1 2zM327.5 278h3.5q-1.2 3 2.5 2 2.7 1.3.5 2.5l.5 1.5 1.5-.5v6.5h-2q1.5 3.7-1.5 3l-7 2-1-3-1.5.5.5-1.5q-2.2.8-1.5-1.5v-4q-1.1-3.3 1.5-2.5v-2q1.3 2.2 2.5-.5l-.5-1.5 2 1zM439 278h3q-1.1 2.7 1.5 2 1.3-2.2 2.5.5v11l-2.5 2.5q-4.8-1.2-6 1 1.7-2-2-4l-1.5-.5q2.5-1.5 1-7l2-3.5q3 1 2-2ZM250.5 282l.5 6.5q-2.1 7.9-8.5 11.5l-9 2h-56l-1.5 1.5-3 18-7.5 10.5-11 6h-58l-10 3-7.5 7.5-18 27-1 5 4 8v3l10 27q5.4 14.1 15.5 23.5 4.8 5.2 14.5 4v3h-7.5q-10.4-3.1-15.5-11.5l-11-20-10-30-6-12q3.1-1.7 1.5-3.5l2 3L76 346.5l7.5-7.5 10-4h58q10.4-2.1 15.5-9.5l3-5 2-10 3-6-1-2 2.5-3.5 2-1h60l6.5-4.5z"/><path fill="#92baa0" stroke="#92baa0" d="M240.5 284h2l2.5.5-7.5 4.5h-60l-1 1-.5-2 2.5-1h60l1.5-1.5zM421.5 311l1 2zM382.5 333h2l3 2q1.3-2.2 2.5.5l-1 2 1 1v8q-3.1 1.8-1.5 3.5l-1.5-.5-.5 1.5-3-1-1.5.5q.8-2.2-1.5-1.5l-1.5-3-2-.5v-2l1-4-.5-1.5 1.5.5q-.5-5 3.5-5.5ZM181.5 340q1.2 2.2 6 1l1.5-.5.5 1.5q1.8-2.7 3.5 1.5v2q-.7 2.3 1.5 1.5l-.5 1.5q1.6 8.1-2 11 2.2 1.3-.5 2.5h-2l-1.5.5.5 1.5-5-2-2.5 1.5q.8-2.2-1.5-1.5l-4.5-3.5 1-2-2-3V348q2.7 1.1 2-1.5-2.2-1.2.5-2.5l4.5-2zM42 352h4q-1.1 2.7 1.5 2l1.5-.5 1.5 2.5 1.5-.5v2l.5 1.5 1.5-.5-1 2.5 2 .5v4.5q-2.7-1.1-2 1.5l.5 1.5-1.5-.5-1.5 2.5-1.5.5.5 1.5-1.5-.5q.8 2.3-1.5 1.5l-5-1-1.5.5q.8-2.2-1.5-1.5l-3.5-1.5v-2q.8-2.2-1.5-1.5l.5-1.5-1-6 1.5.5 1.5-.5-1.5-2.5 1.5.5 1-3.5 2.5-1 2.5 1zM297.5 352l.5 2.5h-1zM431.5 353l16.5.5-16.5.5zM437.5 355q5.3-1.2 6.5 1.5h-2l-.5 2.5-1-3-.5 6.5 1 1V401q-4.7-.7-6 3.5l.5 1.5-1.5-.5-1 3.5-7-.5.5-2.5 2-1 1 2 1.5-2.5-.5-1.5 1.5.5v-44l-1-1 1-2.5zM123.5 356l2 1 4-1 4.5 2.5q-.7 2.6 2 1.5v4.5h2v5l-2 .5v2.5l-.5 2.5-1.5-.5q.8 2.3-1.5 1.5v2l-1.5-.5-.5 1.5q-1.2-2.2-6-1l-3-2q-1.2 2.3-2.5-.5 2.3-1.2-.5-2.5l-1.5-.5 1-5h-2q-1-3.7 2-2.5v-3.5l.5-2.5zM460.5 357l1 1h6.5l1 2.5-2 .5-.5 2h-2l-2.5-2.5zM183.5 367l4 2h7l1.5-.5-.5 1.5 3-1v2l4 2q1.3-2.3 2.5.5-2.5 1.5 1 3l.5 1.5 1.5-.5-1 2 1 1q-1.1 9.6 1 14.5l-9 1 1-3.5-3-1q.8-2.2-1.5-1.5l-1.5.5q.8-2.6-2.5-1.5l-3.5 1-.5-2H180q1.3 3-2.5 2l-3-1-4.5 1.5.5 1.5q-1.2-2.2-2.5.5l1 3.5-3.5-1-1.5.5-.5-1.5-1 2-2.5-1 .5-13 1 2q-.2-8.2 5-11l1.5-.5-.5-1.5h2l4.5-1q-1.1-2.7 1.5-2l5 1zM372.5 370q1.2 2.3 6 1l1.5 1.5 3 4v26l-1.5-.5-2 1v-2l-5 1-3.5-1-.5 2-1.5-12.5 1-1v-10l-1-5.5 2-.5-.5-1.5q1.3 2.3 2.5-.5zM389.5 370l2 1h2l2-1v2q2.3-.7 1.5 1.5h2l-1 1-.5 28.5-.5-2h-7.5l-.5 1.5-2-1v-27l3-3zM402.5 376l.5 6.5h-1zM47.5 377l4.5 2.5 15 42q6.4 17.1 19.5 27.5l8 4H145v10.5l-.5.5h-40l-1.5-3h38.5l.5-2.5q2.3-1.2-.5-2.5h-48q-10.7-3.3-16.5-11.5l-13-22L51.5 389l-31 33-20 17-.5-5q19.6-14.1 36-32.5l14-18zM137.5 377l-1 2z"/><path fill="#92baa0" stroke="#92baa0" d="m117.5 382 8 1 1.5-.5-.5 1.5 5 2 1.5-.5-.5 1.5 3 2 2.5 1.5-.5 1.5 1.5.5-1 2 1.5 2.5 1.5-.5-1 3.5q2.7-1.1 2 1.5l-1 2v2l1 4-1 3 .5 1.5-2.5-1.5q2.5-1.5-1-3l-3.5-5.5-1.5-.5v-2l-2.5-3.5-3.5-1-1 4.5 3 1v2l.5 1.5 1.5-.5v2l.5 1.5 1.5-.5q-2.2 1.2.5 2.5l1.5.5q-2.5 1.5 1 3l2.5 3.5 3 2 1.5-.5-.5 1.5 5-1q.8 2.8 5 2l2-1 4 2 2-1-.5 1.5q.6 5.4-.5 5.5h-22l-2 1v-2l-2 1v-2l-5.5-3-1.5-4-1.5.5 1-1-3-3-.5-1.5-1.5.5q2.3-1.2-.5-2.5l-4.5 2.5 2.5 3.5 1.5-.5q-2.5 1.5 1 3l1.5 2.5 1.5-.5-1 1 5 5q-.7 2.3 1.5 1.5l1.5-.5 1.5 2.5 1.5-.5-.5 1.5 5.5-1q-1.1 2.7 1.5 2l1.5 3.5-1 6.5h-33v-46.5l-1-2 2-3-.5-1.5 1.5-.5-.5-1.5 1.5-.5-.5-1.5 3.5-2.5 1.5-2.5 2 1zM154.5 384l2.5 5.5-.5 2.5h-2l-3.5 1.5.5 1.5-2.5-1q1.1 2.7-1.5 2h-2l-2.5-1.5 1-2h-2l1-2h-2l1-3.5 7.5 1 1.5-3 3.5 1zM309.5 390l.5 3.5h-1zM309.5 397l.5 4.5h-1zM207.5 400l1 2zM346.5 403l1 2zM309.5 405l.5 2.5h-1zM372.5 405l3 1 2-1v1l-1.5.5 2.5.5 1.5-.5q1.1 3.3-1.5 2.5h-2l-6.5-.5.5-2.5 2 1zM391.5 405l2 1 2-1v2l3.5 1.5-10.5.5-1-2h2l2.5-.5zM306.5 412l2.5 1.5-10 9-16.5 18.5-11 7-6 1v-1l1.5-.5-1.5-2.5 3 1q12.4-5.6 20.5-15.5l15.5-17.5z"/><path fill="#92baa0" stroke="#92baa0" d="M308.5 419v2l3-1v1l-5.5 4.5-19.5 21.5-16 9H227l.5 5h39l13-4q12.9-8.1 22.5-19.5l14.5-17.5 2.5 1.5q-12.7 17.3-28.5 31.5-7.5 6.5-18 10-4.7-1.2-6 1h-41l-1.5-1.5v-8l1.5-1.5h40q6.7.7 10-2 11.8-7.2 20.5-17.5zM166.5 422l1 2 1.5-.5q-.7 2.3 1.5 1.5l1.5-.5 1.5 2.5 1.5-.5-3 1q.8 2.3-1.5 1.5l-3-1q-1.2 2.3-2.5-.5l-1-4.5zM208.5 423l.5 2.5h-1z"/><path fill="#9fcecb" stroke="#9fcecb" d="m292.5 42-2 3zM511.5 52l-1 2zM313.5 53l.5 3.5h-1zM328.5 61l4.5.5-4.5.5zM500.5 64l-4 5zM503.5 66l-4 5zM505.5 70l-2 3zM510.5 70l-2 3zM365.5 79l1 2q-2.8.7-1-2ZM507.5 79l-1 2zM484.5 81l-1 2zM489.5 81l-2 3zM493.5 83l-5 6zM496.5 85l-3 4zM505.5 87l-1 2zM471.5 95l-2 3zM281.5 100l-1 2zM302.5 100l1 2zM501.5 103l-1 2zM292.5 108l-1 2zM459.5 108l-3 4zM462.5 110l-1 2zM149.5 112q8.1-.6 10.5 4.5l2 12-4.5 6.5-8 1-5.5-4.5-2-7v-5l4.5-6.5zM378.5 113l1 2zM463.5 115l-2 3zM467.5 116l-1 2zM468.5 121l-1 2zM255.5 122l-1 2zM449.5 124l-3 4zM476.5 124l-1 2zM443.5 125l-1 2zM242.5 127l-2 3zM388.5 128l1 2zM243.5 130l2 3zM449.5 130l-2 3zM465.5 130l-1 2zM476.5 130l-1 2zM228 131q3.3-1.3 2 3.5l2.5 1.5q3.3-3 9.5-2l1 4.5-4.5 5.5-10 3-27 13-15 1-1 1h-11l-3.5 2.5v24l-1 1-.5 12.5-1-1h-11l-1 1h-20l-4.5 1v-30.5l-3.5-.5-12.5 13.5-8 22v4l3 7-3-2 1-2-2-.5-5.5 11q-5.5 1-6.5-2.5v-7l4-10 1-10 2-4v-2q0-9 4-14l17.5-20.5 10-6 13-3h54l22-7 3.5-3.5zM453.5 131l-2 3zM310.5 136l-1 2zM462.5 139l-2 3zM429.5 140l-2 3zM434.5 140l-1 2zM152.5 142l4.5.5-4.5.5zM158.5 142l2.5.5-2.5.5z"/><path fill="#9fcecb" stroke="#9fcecb" d="m168.5 142 15.5.5-15.5.5zM195.5 142l2.5.5-2.5.5zM305.5 142l-1 2zM437.5 143l-3 4zM440.5 145l-1 2zM460.5 147l-2 3zM424.5 151l1 2zM439.5 152l-2 3zM416.5 154q6.5.3 9.5 3 3 3.3 2 11.5l-2.5 3.5-3 2-1 1h-8l-4.5-3.5q-2.6-2.9-2-9l4.5-6.5zM294.5 156l-2 3zM446.5 156l-1 2zM291.5 160l-1 2zM437.5 160l-1 2zM446.5 162l-3 4zM282.5 172l.5 2.5h-1zM127.5 178l-1 2zM419.5 179l-.5 1.5-.5 2.5-.5-2.5zM174.5 181l.5 7.5h-1zM123.5 182l-1 2zM426.5 182l.5 25.5h-1zM422.5 183l.5 33.5h-1zM410.5 184l.5 33-3-.5 2-.5zM307.5 188l.5 3.5h-1zM306.5 202l.5 2.5h-1zM174.5 203l5.5.5-5.5.5zM127.5 205l.5 4.5h-1zM131.5 208l.5 2.5h-1zM418.5 209l.5 2.5h-1zM426.5 209l.5 6.5h-1zM376.5 216l5.5.5-5.5.5zM305.5 217l.5 2.5h-1zM273.5 218l-1 2zM164.5 223l-1 2zM187.5 228l.5 2.5h-1zM126.5 229l.5 4.5h-1zM183.5 231l.5 13.5h-1zM258.5 237l3.5.5-3.5.5zM307.5 237l9.5.5-9.5.5zM239.5 241l.5 2.5h-1zM320.5 243l-1 2zM324.5 243l-1 2zM318.5 249l-1 2zM328.5 249l-5 6zM125.5 252l.5 3.5h-1zM248.5 252l-1 2zM251.5 255l.5 17.5h-1zM332.5 255l-2 3zM291.5 257l-1 2zM296.5 257l-1 2zM247.5 258l-1 2zM302.5 261l-1 2zM288.5 264l-2 3zM303.5 265l-1 2zM382.5 266l2.5.5-2.5.5zM281.5 267l-2 3zM293.5 269l-3 4zM301.5 271l-8 9zM378.5 273l-3 4zM124.5 274l.5 3.5h-1zM307.5 275l-1 2zM301.5 276l-4 5zM229.5 278l3.5.5-3.5.5zM176.5 279l-.5 1.5-.5 2.5-.5-2.5zM326.5 279l-1 2zM436.5 280l-.5 1.5-.5 1.5-.5-1.5zM430.5 284l.5 5.5h-1zM176.5 287l-1 2zM397.5 291l1 2zM351.5 292l-1 2zM445.5 292l-1 2zM244.5 293l-2 3zM123.5 294l.5 3.5h-1zM265.5 294l-1 2zM247.5 295l-2 3zM336.5 295l-1 2zM127.5 300l.5 4.5h-1zM349.5 310l-2 3zM170.5 311l1.5 2.5h-1l-.5-1.5-1.5.5zM282.5 319l.5 3.5q-2.7 2.3-2 8l1 5-1 3 4 20-.5 1.5q2.6-.8 1.5 2.5l1 2-.5 1.5q2.6-.8 1.5 2.5l3 5-.5 1.5q2.3-.7 1.5 1.5l2.5 4.5q2.3-.7 1.5 1.5l4.5 5.5h2l6.5 5.5q1.1 3.3-1.5 2.5l-6.5-4.5-1.5-2.5-2.5-1.5q.8-2.2-1.5-1.5l-3.5-3.5q2.3-1.2-.5-2.5-2.2.8-1.5-1.5l-4-7 1-2h-2l1-1-2-2v-4q.7-2.6-2-1.5v-3.5l-1-2v-2l-1-5v-2l-1-10 1-1v-8l-1-5 1-2.5z"/><path fill="#9fcecb" stroke="#9fcecb" d="m265 322 3 1.5q-2.7 3.8-1 12l2 10-1 3 2 5-1 2 2 3q-2.5 1.5 1 3l-1 2q3.5 1.5 1 3-.7 2.6 2 1.5v2.5l2 4 1 2-.5 1.5 1.5.5-.5 1.5 1.5.5-.5 1.5q2.3-.7 1.5 1.5l2.5 4.5 1.5.5-.5 1.5 3 2 6.5 8 5 2.5v1.5q3.8-1.5 3 1.5l3 1 .5 1.5 1.5-.5.5 1.5q1.3-2.2 2.5.5l-.5 3.5-2-1-1.5.5 1-2.5q-3.7 1.5-3-1.5-1.7 1.6-3.5-1.5l-5.5-3.5q.8-2.6-2.5-1.5l-7.5-7.5-1-3.5q-2.7 1.1-2-1.5-4.2-2.3-2.5-4.5l-1.5-.5q2.5-1.5-1-3l-4-7 1-2.5-2-.5q2.5-1.5-1-3l-1-4 .5-1.5q-2.2.8-1.5-1.5l1-2-2-2-1-8 1-2-2-10v-2l1-10z"/><path fill="#9fcecb" stroke="#9fcecb" d="M272 323q3.7-1.5 3 1.5v2l-1 12 2 7-1 2 2 4 1 7v4l2 3v4.5q2.7-1.1 2 1.5l2 4 1 4.5q2.7-1.1 2 1.5l1 3.5 4 2.5q-2.2 1.3.5 2.5l6.5 4.5q-.7 2.3 1.5 1.5l5.5 3.5-.5 1.5 2-1q2.3.8 1.5 4.5h-1q1.1-3.3-1.5-2.5l-1.5.5-.5-1.5q-1.5 2.5-3-1l-2.5-1.5q.8-2.6-2.5-1.5l-2-4-6.5-4.5-9-15 1-2.5-2-.5v-2q1.5-4.4-1.5-3.5 1.6-1.7-1.5-3.5l1-2-2-4 1-2-2-4v-2l-1-4zM316.5 326l.5 2.5h-1zM342.5 332l.5 5.5h-1zM388.5 335l1 2zM96.5 338l53.5.5-53.5.5zM373.5 339l.5 4.5h-1zM80.5 341l-2 3zM178.5 342l-1 2zM427.5 342l.5 9.5h-1zM472.5 348l.5 5.5h-1zM375.5 351q3.2 4.3 11 4l6-4q5.8 1.3 8.5 5.5l4 10q-2.5 1.5 1 3l2 10q-1.2 3.3-5 2.5 2.1-11.7-5.5-15l-8-1-6 4q-2.2-5.3-11-4l-5.5 4.5q-3 4.3-2 11.5l-4-1.5-1-4 6-17 3.5-5.5zM49.5 354l2 3zM443 354h13.5l.5.5v55l-1.5-.5-17.5 1 3.5-5q4 .5 4.5-2.5l1-2-1-1v-39l-2-2 2-1-.5-1.5 2.5 1.5v7l1.5.5 6.5 3v-13h-5.5l-2 1-4-1-2.5 1.5zm5 11-1 3h1zm0 7v4h4v-1zm1 35v1h7zM239.5 355q8.9-.9 11.5 4.5 2.7 3.8 1 12l-3.5 5.5-7 2-7.5-4.5q-2.9-3.6-2-11l5.5-7.5zM301.5 356l.5 2.5h-1zM427.5 358l.5 42.5h-1z"/><path fill="#9fcecb" stroke="#9fcecb" d="m440.5 358 2.5.5q-2.1 3.3-2.5-.5ZM323.5 359l.5 32.5h-1zM136.5 362l.5 2.5h-1zM195.5 362l-.5 1.5-.5 1.5-.5-1.5zM460.5 365l.5 34.5h-1zM189.5 368l3.5.5-3.5.5zM35.5 369l2 3zM49.5 371l-1 2zM372.5 371l-1 2zM379.5 371l2.5 3.5-2-1zM58.5 373l-1 2zM356.5 376l.5 2.5h-1zM245.5 382h5l8.5 6.5 3 8v49l-2.5.5-2-1-1 1H227v-12h5.5l4-1 8.5-7.5 7-9v-2l-2.5-1.5-13 15-4 2h-19l-4.5-1q-1.5-5.4 1.5-7l17-2 5.5-4.5 10-16-4-1.5-6 11q-2.7-1.1-2 1.5l-3.5 4.5-.5-8.5 2-10q2.6-7.4 8.5-11.5zM409.5 383l-1 2zM213 385l16 3.5-4 8.5-12-5zM150.5 386l-1 2-1.5-.5zM183.5 388l5.5.5-5.5.5zM11.5 391l-4 5zM313.5 392l.5 2.5h-1zM328.5 392l.5 3.5h-1zM42.5 393l-1 2zM323.5 393l.5 9.5h-1zM174 394h5.5l.5 1.5 2 3 1 11 1.5 1.5 3.5-2.5q4.5-4.7 3-14.5l6 1-1 14h3.5l5.5-5.5 1.5-2.5 2.5 1.5 2 7-4.5 6.5q-9.7 8.8-31 6-10.4-2.1-15.5-9.5l-1-7 3.5-5.5 3.5 1.5q-.7 2.3 1.5 1.5l4 7 2.5-1.5q2.5-3.5 1-11z"/><path fill="#9fcecb" stroke="#9fcecb" d="M184.5 394q4.6-1.4 2.5 4.5l-2-1zM169.5 395v2l1.5.5q-2 3.5-4-1zM31.5 399l-2 3zM103.5 399l.5 46.5h-1zM18.5 401l-1 2zM34.5 402l-3 4zM39.5 402l-2 3zM437.5 402l-2.5 3.5-.5 1.5-.5-1.5z"/><path fill="#9fcecb" stroke="#9fcecb" d="M488.5 402q6.3-1.7 8 1h2l2.5 1.5 1.5 2.5q2.6-.8 1.5 2.5l1 3-1 4v2l-2.5 3.5q-2.2-.7-1.5 1.5l-4.5 2.5-3-1-2 1-8-6h-157l-5-1-3 1-2-1-3 2-1.5-2.5q1.3-2.7 2.5-.5l22-1h24q1.8 2.7 8 1l1-1h87q1.8 2.7 8 1l1-1h8q1.5 2.5 7 1 2.5-1.2 1.5-5h-13.5l-6.5-1.5 3.5-1.5H482q-1.1-2.7 1.5-2-1.8-2.5 3-5zM8.5 405l-1 2zM214.5 406l.5 2.5h-1zM223.5 406l.5 9.5h-1zM388.5 407l-1 2z"/><path fill="#9fcecb" stroke="#9fcecb" d="m350.5 410 5 1 4-1h2q3.8-1.2 2.5 2.5l-4.5.5-8-1-1.5.5zM405 410h11.5l1 1 1.5-.5 1 2-2.5.5h-2q-6.3 1.8-8-1-1.2 2.2-2.5-.5zM17.5 413l-1 2zM319.5 413l8.5.5-8.5.5zM22.5 414l-4 5zM301.5 415l-1 2zM118.5 418l2 3zM124.5 418l2 3zM301.5 420l-1 2zM121.5 422l3 4zM314.5 422l-2 3zM18.5 423l-2 3zM201.5 423h3.5v6q-7.2 1.5-10-2.5-.9-3 3.5-1.5zM173.5 426l-1 2zM295.5 427l-1 2zM313.5 428l-1 2zM143.5 429l6.5.5-6.5.5zM176.5 429l-1 2zM287.5 431l-4 5zM301.5 431l-1 2zM151.5 433l4.5.5-4.5.5zM214.5 433l4.5.5-4.5.5zM223.5 434l.5 13.5h-1zM294.5 434l-2 3zM307.5 435l-1 2zM86.5 438l3 4zM300.5 438l-1 2zM83.5 440l3 4zM288.5 440l-2 3zM281.5 441l-1 2zM298.5 445l-1 2zM291.5 447l-1 2zM109.5 449l34.5.5-34.5.5zM226.5 449l37.5.5-37.5.5zM98.5 456l2.5.5-2.5.5zM104.5 456l32.5.5-32.5.5zM141.5 456l1 2zM227.5 456l36.5.5-36.5.5zM265.5 456l2.5.5-2.5.5zM104.5 460l37.5.5-37.5.5zM227.5 460l39.5.5-39.5.5z"/><path fill="#0f4a8d" stroke="#0f4a8d" d="M294.5 37q11.1-1.6 14.5 4.5l4 9v8l-4.5 6.5q-4 3.5-13 2l-6.5-5.5-4-13q.9-6.6 5.5-9.5zm1.5 3-5 2-2 4q-1 14 8 18l9-1 4-5q1-9-3-13-2-6-11-5Z"/><path fill="#0f4a8d" stroke="#0f4a8d" d="M323.5 62h14l15 5 19 12 8.5 8.5 19 34v8l-2.5 3.5-5 2-6.5-4.5q.8-2.2-1.5-1.5l-4 2-2.5-1v-12.5L362.5 98l-15-8H345l40 105.5 8 18v3.5h30v-38.5l-1.5.5q-12.2 1.7-15.5-5.5-3.3-3.2-3-10 1.4-8.1 7.5-11.5l2-1h11l6.5 5.5 1 4.5q2.7 1.1 2-1.5l39.5-41.5 1.5 2.5-42 46-1 5-3 3-2 6V216l4-2.5 1-3v-32l4-9 43.5-46.5 3.5 1.5-45 48-3 8v44q-1.8 7.2-7.5 10.5l-6 2H343l.5-4h79l5.5-3.5 2-3-1.5-.5-6 3H343l.5-4h81l3.5-2 2-3.5-1.5-.5-4 2H343v-4h7v-3.5l3.5-5.5 10.5-5.5-26-45-3-7.5h-1.5L309 174.5q-2.5 3.5-1 11l-1 1-2 38.5h13.5l.5 4-10.5-1-2 1-2-1-3 1h-35l-1-1h-2l-11 1-7.5 6.5-1 4 5.5-4.5 5-2H318l-1 4h-64.5l-5.5 4.5-2 4 2.5-1.5 7-3h57l-2 3-2 1h-55l-7.5 6.5q-3.3 4.7-2 14l-2.5 2.5-2 1h-59l-4.5 2.5-1 3 2.5.5 1-1h60l5.5-3 5-12.5 2.5-2.5.5 22.5q-1.5 8.5-7.5 12.5l-7 3h-59l-2.5 1-1 4.5 1 2-2 7-4 4-1 6-7.5 8.5-6 3h-58q-1.2 2.3-6 1-10.9 2.6-16.5 10.5l-15 23-3 7-4.5 4.5-4.5 1 1 2.5Q31.6 402.1 10.5 420l-10 8-.5-3.5 36-35 9-11-6-1.5q-13 19.6-31.5 35l-7 6-.5-4.5 28-27 8-11-4-2.5-4 6.5L7.5 401l-7 6-.5-3.5q17.4-15.1 31-34-2.7-2.3-2-8 1.1-7.4 6.5-10.5 3.6-2.9 11-2l1.5-1.5q7.1-16.9 20.5-27.5l18-8q4.8 1.2 6-1H123v-8.5l1-1v-19l1-1 2-67 1-1v-26l1-1V178l-9 7.5-8 21v5q2.8 2.7 2 9-1 2.5-5.5 1.5l-1.5-.5-3.5 6.5-6 1-5.5-4.5-1-7 4-11 5-27q8.2-15.3 20.5-26.5 8.2-7.8 22-10h56l22-7 2.5-2.5 5.5-6.5q4.8-.7 5.5 2.5-.7 2.6 2 1.5v-2.5l4.5-4.5 9-2 23.5-16 22.5-31q11.7-8.8 28-13Zm1.5 3q-15 3-25 11l-8 8-14 21-6 6-19 13-11 3-2 3 4 1q3 2 2 7h3l33-17 10-11 9-9h2l10 28v4l-24 29-3 6v44l-10 4-6 7 1 2h31l2-40 2-11 27-27h3l29 51 2 7-9 4-5 6 1 2h36L342 94l-2-9 9 2 14 7 6 7 11 16 1 11 1-2 3-2 6 7q4 1 5-2v-6l-20-35-8-8-18-11-13-4zm-24 41-11 12-7 6-37 18-5 5-10 3-24 12-7 2-25 2v8l-1 1v25h25l4 2 3 4 3 9v37l9 3 5 7q-1 4 1 4h14l2-3v-24l2-5q7-11 25-9l1-6q6-7 15-9v-43l6-10 21-26zm-71 24-5 7-6 3-20 6h-56q-11 2-17 7-14 11-23 28l-5 27-4 10 1 6q1 3 6 2l6-9 4 2v-3l-3-6 9-25 13-13 2 2-2 68-1 1v21l-1 1v20l-1 1v21l-1 1 1 3h32l-2-6-13-6v-6l2-7v-6l2-7v-6l2-7 4-30q13-11 17-29v-28l1-1v-9l28-2 41-18 2-3q1-6-2-7l-9 3-2-2 1-2q1-3-1-2Zm185 24-2 1-6 7 1 9 8 5q6 1 9-2l4-7-2-8q-2-7-12-5Zm-242 49-1 7-8 14-3 4 17-3h9v41h33l-1-5-2-3-12-5v-42l-1-2-6-6zm7 25-15 3h-6l-3 5-9 61 10 4q4 3 5 10h4l3-2 2-4v-32l1-2q3-7 12-5v-37q0-1-4-1Zm66 44q-3 5-10 6h-58l-1 1h-2v4l3-1h60l4-2 4-5zm1 7-2 3-9 4h-58l-1 1h-2v4l3-1h61l2-1 6-8zM96 314l-14 3-11 6-11 11-10 16 4 2 11-17q9-13 28-16h67l6-3 1-2-5 1zm68 6-3 2H97l-11 2-11 6-8 8-11 17 3 5 14-22q7-8 20-11h61l10-5zM43 352l-5 2-5 6q-1 7 2 11l6 3 9-1 5-7v-4l-3-7q-3-3-9-3ZM511.5 76l.5 4.5L494.5 99l-2.5-2.5 8-8zM511.5 87l.5 4.5-13.5 14.5-1.5-3.5zM482.5 98q6.5.3 9.5 3l3 8.5-1 4-5.5 5.5-5 1-6-2-2.5-2.5q-2.6-2.9-2-9l4.5-6.5z"/><path fill="#0f4a8d" stroke="#0f4a8d" d="M147.5 109q11.5-2 14.5 4.5 4.5 5.5 3 17l-5.5 7.5-9 2q-6.5-1.5-9.5-6.5-3.2-5.7-2-16l4.5-6.5zm1.5 3-2 1-5 6q-1 9 2 14l8 4 7-2 3-4q1-12-3-17l-3-2zM380.5 267q8.3-1.3 12 2l6 6 33 22 10 4 14 3 10.5 8.5 4 10v9l2 11v18l-2.5 4.5-7 1-2.5-1v48h-40q-1-7.3 3.5-10l4.5-2.5v-62l-1-1v-17l-5.5-9.5-35.5-29.5q.8-2.2-1.5-1.5L346 313.5l-3 6q1.8 6.3-1 8v73l7 6 1 6.5h-39.5l-.5-.5v-7l-1-3 1-5-1-3 1-4-1-1-.5-24.5q-1.5 2.5-7 1l-3.5-4.5-1-12 1-1 2-28q2.3-7.7 7.5-12.5l9-5 20-5 35-23zm1.5 3-6 6-38 25-20 5-6 3-8 10-2 11v9l-1 1v21l1 1q-1 3 5 1l2-3 1-19 2-8v-6l2-2 2 2-4 23 1 60h19v-1l-8-6v-42l2-2 2 2v41h3q4 2 4 8h12l-1-2q-2-4-7-4v-79l2-9 4-6 38-32v-7zm49 83v50l-8 6 1 1h10l2-5 5-3 1-1v-42l3 1v44l-4 1-4 5h20v-57zm30 4q-1 4 3 6 4 1 5-2v-4z"/><path fill="#0f4a8d" stroke="#0f4a8d" d="M327.5 275q8.1-.1 10.5 5.5l1 10-5.5 7.5-5 1-4-1-4.5-4.5-1-11 5.5-6.5zm.5 3-2 1-4 5 1 9q2 4 9 2l4-5-1-8q-1-5-7-4ZM438.5 275q8.1-.6 10.5 4.5l2 10-4.5 7.5-7 2-6.5-3q-3.4-4.2-2-14.5l3.5-4.5zm1.5 3-6 5q-2 9 4 12 8 2 9-3 2-8-1-11zM267.5 294h8l8.5 6.5q3.3 3.7 2 12l-6.5 8.5q-3.3 2.7-10 2l-9.5-5.5q-4-3.5-3-12 1.5-6.5 6.5-9.5zM381.5 330q8.9-.9 11.5 4.5l2 9-1 4.5 9 5.5 3 5 5 15v8q-2.5 4.8-9 4.5v19.5q3 2.3 2 7.5h-39.5l-.5-3.5 2-3V386q-5.9.9-8-3.5l-1-8 5-15 4-7.5 9-4.5-1-1v-9l3.5-5.5zm1.5 3-2 1-4 5 1 9 5 3 6-1 2-3q2-8-1-11-2-4-7-3Zm-8 18-4 2-6 8-5 14v5q1 4 6 3v-9l1-2 8-6q7 0 10 5v-2l7-3 7 2 3 5v10l6-2v-6l-6-17-7-7h-3l-4 3h-7zm-2 19-4 5v28l3-1q8-1 11 2v-27l-1-3q-1-5-9-4Zm17 0-4 5 1 29 3-2q6-2 8 1h1v-29q-1-5-9-4Zm-17 35-2 1-3 4h14v-1q-2-5-9-4Zm19 0-3 2q-3-1-2 2v1h14q-2-6-9-5ZM180.5 337h9l7.5 6.5q2.4 5.1 1 14l-5 7q11.9 1.6 17 10l2.5 5.5q7.9 4.6 20 5l4.5-3.5-6-5q-3.8-4.7-2-15 1.4-6.1 6.5-8.5l8-2q7.4 1.1 10.5 6.5 3.3 4.7 2 14l-4 7q6.8 2.2 10 8l3 7v52l1 2-1.5 1.5H224v-14.5l-1.5-1.5h-17l-3-1h-2q-5.8.8-7.5-2.5l-1-3.5h-13.5l-1.5 1.5-2.5 3.5-7 2-2-1-1 1H146v14.5l-1.5 1.5H104v-53.5q1.9-8.6 7.5-13.5l6.5-3.5q-5.8-3.7-5-14l3-8 2.5-2.5 10-3 9.5 5.5q4.1 4.4 3 14-2 7.5-8 11 1.6 4.4 8.5 3.5l16.5-5q.5-6.6 5.5-10l12.5-5.5-5-8v-9l5.5-8.5zm1.5 3-2 1-6 8 1 10 7 5q7 1 10-2l3-5q2-9-2-13-2-6-11-4Zm-58 15-2 1q-5 3-6 10l1 7 2 3 6 3 8-1q4-3 5-8 1-7-2-10-2-7-12-5Zm115 0-2 1-5 7v9l3 5 5 2 8-1 5-7v-7l-3-7-3-2zm-55 12-1 1h-8l-7 3q-6 4-8 12l1 14 3-2 2 1 6 6-3-10 12-3h8l11 3 2 10 1-5 4-2 2 2v-16l-4-7-9-6zm-66 15-2 1q-7 4-9 14v49h35v-12l-7-1-5-3-13-14 4-2 4 7 11 9h25v-8l-20-3-14-19 3-2 11 18h1q2-17-4-25-4-6-11-9zm126 0-8 4q-7 6-9 16l1 14 10-15q2-5 4-1l-9 15-6 5-17 2-2 2v6h26l7-5 6-8q1-4 5-3v3l-4 5-9 9-4 2-8 1v12h35v-51l-3-7q-3-8-15-6Zm-89 2-15 5 5 9 12-6v-8zm58 0v8l12 6 4-10zm-29 8 3 11q2-4 1-10zm-6 1-5 2 2 5-1 8-4 1-2-6-4-4q-5 3-6 9l2 6 7 5 12 4h12l14-5 6-7q1-7-2-9l-2-2-3 5-5 4-3-1 2-6-1-8-6-1q1 8-2 14-1 4-6 3 2-10-3-15 1-3-2-2Zm-21 2-12 7 1 15 12 2h3l-2-1-4-8 2-7zm55 1v5l2 4q1 7-2 11l-2 3 11-2h3v-15l-9-6zm-7 25-8 4q-3-1-2 2l3 2h7zm-41 1 1 7 9-1 1-3z"/><path fill="#e5f7f8" stroke="#e5f7f8" d="m307.5 39 1 2zM506.5 57l-2 3zM509.5 60l-2 3zM310.5 63l-1 2zM304.5 67l1 2zM491.5 73l-1 2zM294.5 75l-3 4zM495.5 75l-2 3zM498.5 77l-1 2zM503.5 78l-3 4zM511.5 81l-1 2zM502.5 84l-2 3zM478.5 87l-1 2zM510.5 87l-2 3zM499.5 94l-2 3zM507.5 97l-2 3zM270.5 106l-1 2zM300.5 106l-1 2zM297.5 109l-1 2zM143.5 110l-2 3zM451.5 116l-1 2zM454.5 119l-1 2zM473.5 122l-2 3zM482.5 124l-2 3zM458.5 126l-1 2zM463.5 126l-2 3zM470.5 130l-2 3zM439.5 135l-1 2zM444.5 135l-1 2zM459.5 137l-3 4zM468.5 139l-1 2zM448.5 142l-5 6zM455.5 146l-3 4zM120.5 152l-1 2zM433.5 153l-3 4zM444.5 153l-4 5zM116.5 156l-2 3zM451.5 157l-2 3zM433.5 158l-1 2zM442.5 160l-2 3zM440.5 169l-1 2zM127.5 197l.5 3.5h-1zM203.5 202l2 3zM327.5 209l2.5.5-2.5.5zM333.5 209l3.5.5-3.5.5zM112.5 210l1 2zM434.5 221l.5 2.5h-1zM126.5 223l.5 2.5h-1zM256.5 224l3.5.5-3.5.5zM262.5 224l3.5.5-3.5.5zM305.5 224l12.5.5-12.5.5zM343.5 224l4.5.5-4.5.5zM413.5 224l4.5.5-4.5.5zM332.5 226l.5 3.5h-1zM248.5 232l-1 2zM343.5 232l40.5.5-40.5.5zM392.5 232l27.5.5-27.5.5zM329.5 253l-2 3zM183.5 255l.5 5.5h-1zM298.5 256l-1 2zM286.5 261l-1 2zM183.5 264l.5 2-2-.5zM291.5 266l-1 2zM124.5 267l.5 2.5h-1zM299.5 268l-1 2zM242.5 269l-2 3zM288.5 269l-1 2zM376.5 269l-2 3zM393.5 269l1 2zM177.5 273l2.5.5-2.5.5zM301.5 281l-1 2zM295.5 282l-1 2zM318.5 284l.5 2.5h-1zM393.5 288l1 2zM123.5 289l.5 2.5h-1zM244.5 290l-1 2zM337.5 294l.5 1.5-3.5 2.5v-1l2.5-1.5zM448.5 295l-2 3zM262.5 296l-1 2zM365.5 297l-1 2zM406.5 299l1 2zM412.5 304l1 2zM307.5 307l-3 4zM418.5 309l1 2zM96.5 310l15.5.5-15.5.5zM422.5 313l1 2zM162.5 321l-1 2zM68.5 325l-1 2zM268.5 327l.5 8.5h-1zM275.5 327l.5 10.5h-1zM282.5 327l.5 10.5h-1zM264.5 328l.5 3.5h-1zM271.5 328l.5 4.5h-1zM278.5 328l.5 7.5h-1zM64.5 329l-1 2zM376.5 332l-1 2zM55.5 333l-1 2zM96.5 334l52.5.5-52.5.5zM74.5 335l-1 2zM68.5 337l-1 2zM175.5 339l-2 3zM342.5 341l.5 2.5h-1zM82.5 345l-1 2zM170.5 350l.5 3.5h-1zM401.5 351l1 2zM33.5 352l-1 2zM70.5 352l1 2zM117.5 354l-1 2zM136.5 354l1 2zM173.5 362l1 2zM196.5 363l-1 2zM470.5 364l-1 2zM157.5 378l-1 2zM28.5 379l-1 2zM21.5 380l-1 2zM112.5 380l-4 5zM292.5 383l1 2zM28.5 384l-1 2zM36.5 387l-1 2zM303.5 388l1 2zM299.5 390l2 3zM17.5 391l-7 8zM28.5 391l-2 3zM290.5 391l4 5zM37.5 393l-2 3zM18.5 395l-2 3zM306.5 395l1 2zM28.5 396l-1 2zM38.5 397l-1 2zM293.5 398l1 2zM2.5 399l-2 3zM8.5 400l-1 2zM22.5 402l-8 9zM304.5 402l1 2zM502.5 405l1 2zM481.5 408l-1 2zM10.5 409l-2 3zM353.5 409l4.5.5-4.5.5zM407.5 409l2.5.5-2.5.5zM2.5 410l-2 3zM305.5 411l-1 2zM349.5 413l15.5.5-15.5.5zM404.5 413l2.5.5-2.5.5zM408.5 413l11.5.5-11.5.5zM463.5 413l16.5.5-16.5.5zM28.5 414l-5 6zM315.5 416l12.5.5-12.5.5zM352.5 416l7.5.5-7.5.5zM400.5 416l7.5.5-7.5.5zM432.5 416l7.5.5-7.5.5zM5.5 418l-1 2zM12.5 418l-3 4zM320.5 420l162.5.5-162.5.5zM303.5 423l-1 2zM4.5 425l-1 2zM161.5 433l2.5.5-2.5.5zM6.5 434l-1 2zM288.5 435l-2 3zM80.5 437l1 2zM227.5 457l.5 2.5h-1z"/><path fill="#d3e6e8" stroke="#d3e6e8" d="m289.5 39-1 2zM509.5 54l-2 3zM333.5 61l2.5.5-2.5.5zM290.5 63l1 2zM506.5 63l-2 3zM495.5 69l-3 4zM502.5 73l-3 4zM492.5 78l-2 3zM505.5 81l-2 3zM499.5 82l-2 3zM482.5 83l-3 4zM509.5 83l-3 4zM378.5 85l1 2zM487.5 89l-3 4zM346.5 90l-1 2zM479.5 92l-3 4zM492.5 95l-1 2zM496.5 97l-1 2zM468.5 98l-3 4zM500.5 98l-2 3zM504.5 100l-2 3zM466.5 106l-3 4zM498.5 107l.5 3.5h-1zM160.5 111l1 2zM295.5 111l-1 2zM455.5 112l-3 4zM460.5 118l-2 3zM452.5 121l-2 3zM466.5 123l-2 3zM470.5 125l-4 5zM474.5 126l-3 4zM441.5 127l-4 5zM479.5 127l-2 3zM456.5 128l-2 3zM386.5 132l1 2zM446.5 133l-1 2zM437.5 137l-2 3zM452.5 138l-3 4zM144.5 142l3.5.5-3.5.5zM161.5 142l4.5.5-4.5.5zM184.5 142l8.5.5-8.5.5zM245.5 142l-1 2zM443.5 142l-2 3zM459.5 142l-3 4zM426.5 143l-1 2zM453.5 143l-2 3zM463.5 144l-2 3zM433.5 147l-2 3zM118.5 154l-1 2zM436.5 155l-2 3zM439.5 158l-1 2zM444.5 158l-1 2zM448.5 160l-1 2zM282.5 169l.5 2.5h-1zM282.5 175l.5 32.5h-1zM125.5 180l-1 2zM414.5 182l.5 33.5h-1zM418.5 183l.5 25.5h-1zM434.5 183l.5 37.5h-1zM174.5 189l.5 8.5h-1zM127.5 201l.5 3.5h-1zM324.5 209l2.5.5-2.5.5zM418.5 212l.5 4.5h-1zM330.5 213l-.5 1.5-.5 15.5-.5-15.5zM332.5 213l.5 12.5h-1zM322.5 214l.5 17.5h-1zM339.5 214l.5 18.5h-1zM270.5 215l-1 2zM126.5 226l.5 2.5h-1zM332.5 230l.5 3.5h-1zM256.5 232l62.5.5-62.5.5zM183.5 245l.5 9.5h-1zM125.5 248l.5 3.5h-1zM248.5 248l-1 2zM331.5 251l-1 2zM334.5 253l-1 2zM326.5 256l-1 2zM329.5 258l-1 2zM385.5 266l2.5.5-2.5.5zM124.5 270l.5 3.5h-1zM297.5 270l-5 6zM180.5 273l55.5.5-55.5.5zM251.5 273l.5 3.5h-1zM170.5 274l.5 29.5h-1zM303.5 274l-1 2zM305.5 277l-1 2zM447.5 277l1 2zM251.5 282l.5 3.5h-1zM299.5 283l-1 2zM379.5 285l-1 2zM246.5 288l-1 2zM373.5 290l-1 2zM269.5 293l3.5.5-3.5.5zM410.5 302l1 2zM286.5 305l.5 4.5h-1zM416.5 307l1 2zM96.5 318l61.5.5-61.5.5zM276.5 322l-.5 1.5-.5 3.5-.5-3.5zM268.5 323l.5 3.5h-1zM282.5 323l.5 3.5h-1zM426.5 324l.5 2.5h-1zM166.5 325l-1 2zM96.5 326l55.5.5-55.5.5zM70.5 328l-4 5zM163.5 328l-1 2zM72.5 332l-3 4zM268.5 336l.5 5.5h-1zM275.5 338l.5 4.5h-1zM282.5 338l.5 5.5h-1zM342.5 338l.5 2.5h-1zM265.5 342l.5 3.5h-1zM272.5 344l.5 2.5h-1zM279.5 344l.5 2.5h-1zM42.5 348l3.5.5-3.5.5zM269.5 348l.5 2.5h-1zM427.5 352l.5 5.5h-1zM251.5 354l1 2zM472.5 354l.5 3.5h-1zM256.5 364l.5 5.5h-1zM231.5 377l2 3zM23.5 378l-1 2zM26.5 381l-1 2zM30.5 382l-1 2zM296.5 382l5 6zM288.5 383l1 2zM38.5 385l-1 2zM294.5 385l4 5zM286.5 386l1 2zM364.5 386l1.5 1.5v19h-1v-19zM41.5 388l-1 2zM46.5 388l-1 2zM279.5 388l1 2zM292.5 388l3 4zM23.5 390l-4 5zM305.5 390l1 2zM48.5 392l-1 2zM282.5 392l1 2zM31.5 393l-2 3zM184.5 393l2.5.5-2.5.5zM25.5 394l-4 5zM40.5 395l-1 2zM300.5 395l1 2zM34.5 396l-2 3zM156.5 397l.5 4.5h-1zM201 397l2 .5-1.5 3.5zM297.5 397l1 2zM15.5 398l-6 7zM42.5 399l-2 3zM186.5 399l.5 2.5h-1zM460.5 400l.5 9.5h-1zM491.5 401l4.5.5-4.5.5zM16.5 403l-5 6zM30.5 406l-7 8zM13.5 411l-2 3zM505.5 412l.5 3.5h-1zM303.5 413l-1 2zM313.5 413l2.5.5-2.5.5zM332.5 413l16.5.5-16.5.5zM365.5 413l38.5.5-38.5.5zM420.5 413l11.5.5-11.5.5zM436.5 413l22.5.5-22.5.5zM460.5 413l2.5.5-2.5.5zM3.5 415l-2 3zM15.5 415l-2 3zM305.5 416l-3 4zM299.5 417l-1 2zM307.5 419l-3 4zM3.5 420l-1 2zM313.5 420l2.5.5-2.5.5zM503.5 420l-3 4zM483.5 421l2 3zM309.5 422l-1 2zM12.5 423l-2 3zM293.5 424l-1 2zM297.5 425l-1 2zM311.5 425l-2 3zM181.5 426l7.5.5-7.5.5zM315.5 426l-1 2zM299.5 428l-1 2zM303.5 429l-1 2zM4.5 430l-1 2zM8.5 432l-1 2zM305.5 432l-1 2zM156.5 433l4.5.5-4.5.5zM209.5 433l4.5.5-4.5.5zM309.5 433l-1 2zM2.5 437l-1 2zM296.5 437l-7 8zM78.5 440l1 2zM298.5 440l-6 7zM302.5 441l-3 4zM98.5 445l2.5.5-2.5.5zM296.5 447l-3 4zM98.5 449l7.5.5-7.5.5zM264.5 449l2.5.5-2.5.5zM223.5 455l.5 6.5h-1zM103.5 460l-.5 1.5-.5 1.5-.5-1.5z"/><path fill="#8fbbbb" stroke="#8fbbbb" d="m297.5 36 2.5.5-2.5.5zM296.5 40q4.8-.7 6.5 1.5l-1.5.5-5-1zM304.5 42l1 2zM289.5 47l1.5 6.5-2-1zM308.5 51q2.5 1 1.5 5.5h-1zM290.5 55l1.5 2.5h-1zM292.5 59l2 3zM307.5 60l-2 3-1.5-.5zM327.5 65l5.5.5-5.5.5zM321.5 66l2.5.5-2.5.5zM315.5 68l-1 2-1.5-.5zM346.5 68l2.5 1.5-1.5.5zM357.5 74l3.5 2.5-1.5-.5zM511.5 75l-3 4zM298.5 77l-2.5 3.5q.8 2.3-1.5 1.5l-1.5.5zM486.5 79l-1 2zM368.5 81l2 3zM374.5 81l3 4zM292.5 84l-.5 1.5-.5 1.5-.5-1.5zM340.5 84l-.5 1.5-.5 2.5-.5-2.5zM372.5 84l2.5 3.5h-1zM486.5 84l-1 2zM289.5 88l.5 1.5-3 2zM499.5 88l-5 6zM376.5 89l1 2zM503.5 89l-4 5zM508.5 90l-6 7zM360.5 92l4.5 3.5-2.5-1.5zM511.5 92l-2 3zM285.5 94l-1 2zM379.5 94l2.5 3.5-3-2zM342.5 95l1.5 2.5-2-1zM479.5 96q1.5 2.5 7 1l1.5 1.5-1.5.5-5-1-7.5 5.5-1 7 2 4-2-1-1-7q1.4-6.1 6.5-8.5l1.5-.5zM492.5 97l1 2q-2.8.7-1-2ZM362.5 98l1 2zM367.5 98l4.5 5.5-2-1zM489.5 99l2.5 1.5-1.5.5zM300.5 100l-7 8zM344.5 100l1.5 3.5h-1zM492.5 102q2.3-.7 1.5 1.5l1 3h-1zM497.5 103l.5 2-2-.5zM278.5 104l-6 7zM385.5 105l1.5 2.5-2-1zM499.5 105l-1 2zM373.5 106l1 2zM150.5 108l3.5.5-3.5.5zM495.5 108l.5 2.5-5.5 8.5-6 2v-1l7.5-3zM375.5 109l3 4q-2.2.8-1.5-1.5zM290.5 110l.5 1.5-10 9zM348.5 110l1.5 2.5-2-1zM269.5 112l1.5.5-3.5 2.5zM265.5 115l-1 2zM475.5 116l3.5 2.5-1.5.5zM472.5 117l3 4-2 1 .5-1.5-1.5-2.5-3.5 2.5zM259.5 119l1.5.5-4.5 2.5v-1zM480 119q4.1-1.3 3 2-4.1 1.3-3-2ZM161.5 121l.5 2.5h-1zM394.5 122q3 1.5 0 3z"/><path fill="#8fbbbb" stroke="#8fbbbb" d="m478.5 122 3.5.5-4.5 1.5zM274.5 123l1.5.5-2.5 1.5zM383.5 123l4.5 3.5-.5 1.5-3-4zM399.5 124l.5 2.5h-1zM165.5 125l.5 3.5h-1zM270.5 125l1.5.5-2.5 1.5zM266.5 127l1.5.5-2.5 1.5zM355.5 128l1.5 2.5-2-1zM241.5 129l1 2zM460.5 130l-6 7zM258.5 131l1.5.5-3.5 1.5v-1zM313.5 131l.5 1.5-2 3.5-2-.5zM463.5 132l-3 4zM474.5 132l-5 6zM145.5 133l1 2zM238.5 133l2.5.5-2.5.5zM142.5 135l1 2zM151.5 136l2.5.5-2.5.5zM358.5 136l1.5 3.5h-1zM465.5 136l-2 3zM308.5 138l-1 2zM241.5 141l-1 2zM361.5 143l1.5 2.5-2-1zM334.5 145l1 2zM143.5 146l2.5.5-2.5.5zM332.5 146l-4 5zM449.5 147l-5 6zM300.5 148l-1.5 2.5-1.5 3.5-.5-1.5zM443.5 148l-3 4zM457.5 150l-3 4zM451.5 151l-4 5zM326.5 152l-1 2zM339.5 152l1 2zM125.5 153l-1 2zM428.5 153l1.5 2.5-2-1zM323.5 155l-6 7zM186.5 161l3.5.5-3.5.5zM368.5 161l2.5 5.5-2-1zM174.5 162l3.5.5-3.5.5zM289.5 162l.5 2-2-.5zM345.5 162l6.5 11.5h-1zM435.5 162l-1 2zM428.5 163l.5 3.5h-1zM171.5 164l.5 3.5h-1zM438.5 165l-2 3zM442.5 166l-1 2zM111.5 168l-1 2zM309.5 168l.5 1.5-4 3zM286.5 170l.5 4.5h-1zM426.5 171l-2 3zM128.5 172l-2 3zM429.5 173l-1 2zM415.5 175l5.5.5-5.5.5zM124.5 176l-6 7zM286.5 176l.5 11.5h-1zM408.5 176l2 3zM304.5 177l.5 2.5h-1zM353.5 177l1 2zM128.5 178l.5 6.5h-1zM174.5 178l.5 2.5h-1zM374.5 178l1.5 2.5h-1zM356.5 182l1 2zM376.5 182l1.5 2.5-2-1zM430.5 182l.5 28.5h-1zM303.5 184l.5 7.5h-1zM359.5 186l2.5 5.5h-1zM170.5 189l.5 11.5h-1zM379.5 190l1.5 2.5-2-1zM131.5 192l.5 15.5h-1zM286.5 192l.5 7.5h-1zM364.5 195l1.5 3.5h-1zM381.5 195l1.5 2.5-2-1zM302.5 197l.5 2.5h-1zM99.5 198l1.5 2.5-2-1zM176.5 199l2.5.5-2.5.5zM157.5 201l2.5.5-2.5.5zM168.5 201l1.5 2.5h-1zM136.5 202l7.5.5-7.5.5zM302.5 202l.5 4.5h-1zM180.5 203l16.5.5-16.5.5zM199.5 204q3 1.5 0 3zM367.5 204l-.5 1.5-.5 1.5-.5-1.5zM286.5 206l.5 4.5h-1zM359.5 208l-1 2zM166.5 210l.5 2.5-2 1zM356.5 210l-1 2zM131.5 211l.5 9.5h-1zM285.5 212l-1 2-1.5-.5zM301.5 212l.5 10.5h-1zM109.5 213l-1.5 2.5q.8 2.3-1.5 1.5l.5-1.5q-.7-2.2 1.5-1.5zM319.5 213l.5 10.5h-1zM204.5 214l.5 33.5h-1zM305.5 214l.5 2.5h-1zM164.5 215l-.5 1.5q-3 7.5-9.5 11.5l3.5-4.5 1.5-2.5q2.3.8 1.5-1.5zM110.5 216l.5 1.5-2 1zM276.5 216l-1 2-1.5-.5zM358.5 216l17.5.5-17.5.5zM382.5 216l7.5.5-7.5.5zM168.5 217l1.5.5-5 4zM342.5 217l.5 2.5h-1zM270.5 223l1 1 28.5.5-30 .5zM186.5 224l1 2zM98.5 225l2.5.5-2.5.5zM162.5 225l-.5 1.5q.8 2.3-1.5 1.5zM170.5 225l4.5.5-4.5.5zM93.5 226l1 2zM130.5 226l.5 15.5h-1zM166.5 226l2.5.5-2.5.5zM183.5 228l.5 2.5h-1zM153.5 229l.5 2.5h-1zM245.5 229l-1 2zM427.5 229l-1 2zM187.5 231l.5 21.5h-1zM430.5 231l-2 3zM247.5 236l-2 3-1-2q1.5 2.5 3-1ZM252.5 237l2.5.5-3 .5-.5 2-.5-1.5zM262.5 237l44.5.5-44.5.5z"/><path fill="#8fbbbb" stroke="#8fbbbb" d="m249.5 239 .5 2 3.5-1h58v1h-57l-8.5 3-.5 2-.5-1.5zM151.5 241l.5 3.5h-1zM311.5 242l-2 3zM239.5 244l.5 2.5h-1zM150.5 246l.5 4.5h-1zM129.5 248l.5 13.5h-1zM239.5 248l.5 10.5h-1zM149.5 253l.5 3.5h-1zM205.5 253l1 2zM125.5 256l.5 3.5h-1zM248.5 256l1.5.5-2.5 1.5zM214.5 257l3.5 2.5-1.5.5zM188.5 264l1 1 29.5.5-31.5.5zM147.5 266l.5 3.5h-1zM296.5 266l-2 3zM246.5 270l.5 1.5-1 2.5-2 .5v2l-2.5 3.5-4 2h-59v-1h58l5.5-3.5-1-1 5-5zM382.5 270l.5 5.5h-1q1.5-4.4-1.5-3.5l-1.5.5zM128.5 274l.5 5.5h-1z"/><path fill="#8fbbbb" stroke="#8fbbbb" d="m236 277 4 .5-3.5 1.5zM177 278l52 .5-50.5.5-1 1zM380 278l2 .5-3 2zM145.5 279l.5 3.5h-1zM246.5 279l.5 2-2-.5zM370.5 279l-1 2zM442.5 279l2.5 1.5-1.5-.5zM377.5 281l-5 6-6 5-.5-2zM244.5 282l1.5.5-4.5 2.5 1-2zM434.5 282l.5 7.5h-1zM446.5 282l.5 7.5h-1zM249.5 283l.5 1.5-1.5 2.5-.5-1.5zM381.5 283l-1 2zM236.5 285l3.5.5-2.5 1.5z"/><path fill="#8fbbbb" stroke="#8fbbbb" d="m243.5 285-3 4-2 1h-61l-1 1-1-2h62zM361.5 285l2.5 1.5-1.5-.5-4 2v-1z"/><path fill="#8fbbbb" stroke="#8fbbbb" d="m182.5 286 52.5.5-52.5.5zM355.5 289l-1 2-2 1 1-2zM127.5 291l.5 8.5h-1zM143.5 291l.5 2.5h-1zM435.5 292l6.5 2.5-3.5.5zM332.5 293l-1 2-3.5-.5zM363.5 293l-3 4-.5-2zM321.5 295l1 2zM346.5 295l1.5.5-2.5 1.5zM174.5 297l.5 2.5h-1zM123.5 298l.5 2.5h-1zM357.5 298l-3 4zM144.5 300l2.5 1.5-1.5-.5zM234.5 301l2.5.5-2.5.5zM153.5 303l1 2zM350.5 304l-2 3zM322.5 305l2.5.5-2.5.5zM127.5 306l.5 2.5h-1zM156.5 306l1.5 2.5h-1zM345.5 308l-1 2zM172.5 309l-1 2zM312.5 309l-1 2q-2.2-.7-1.5 1.5h-1l1.5-2.5zM128.5 310l25.5.5-25.5.5zM342.5 312l-.5 1.5-.5 1.5-.5-1.5zM307.5 313l-1 2zM95.5 314l29.5.5-29.5.5zM166.5 314l-1 2zM282.5 318l-1 2zM305.5 318l-1 2zM339.5 318l.5 2.5h-1zM96.5 322l60.5.5-60.5.5zM64.5 323l-4 5zM303.5 324l.5 5.5h-1zM313.5 324l2.5 1.5-1.5-.5-2 1zM265.5 325l.5 3.5h-1zM267.5 325l.5 10.5h-1zM281.5 326l.5 4.5h-1zM279.5 327l.5 8.5h-1zM338.5 328l.5 6.5h-1zM316.5 329l-.5 1.5-.5 3.5-.5-3.5zM342.5 329l.5 2.5h-1zM96.5 330l55.5.5-55.5.5zM77.5 333l-1 2zM302.5 333l.5 2.5h-1zM274.5 334l.5 4.5h-1zM310.5 334l.5 2.5h-1zM68.5 336l-1 2zM183.5 336l2.5.5-2.5.5zM281.5 336l.5 2.5h-1zM78.5 337l-4 5zM314.5 337l.5 4.5h-1zM72.5 338l-1 2zM302.5 338l.5 2.5h-1zM193.5 339l1 2zM377.5 339l.5 2.5h-1zM390.5 339l.5 7.5-1 2.5-2.5 1 2.5-3.5zM185.5 340l2.5.5-2.5.5zM309.5 341l.5 3.5h-1zM191.5 343l2.5 3.5h-1zM301.5 343l.5 3.5h-1zM268.5 346l.5 2.5h-1zM308.5 347l.5 8.5h-1zM194.5 348l.5 3.5h-1zM198.5 349l.5 5.5h-1zM301.5 349l.5 6.5h-1zM383.5 350l2.5.5-2.5.5zM391.5 351l-1 2zM313.5 352l.5 3.5h-1zM337.5 352l.5 15.5h-1zM194.5 353l.5 3.5h-1zM448.5 353l8.5.5-8.5.5zM233.5 354l-1 2zM382.5 354l4.5.5-4.5.5zM431 354l12 .5-11 1.5-.5 2zM36.5 355l-1 2zM123.5 355l-1 2-3 2 2-3zM297.5 355l.5 2.5h-1zM444 355l5.5 1 6.5-1v12.5l-1.5.5q-2-3.2-6.5-3l-.5 3-.5-2.5q2.8-1.7 1-8l-2.5-1.5 1.5 2.5-1 2v39l1.5 2.5-1.5-.5-.5 1.5-.5-42.5 1-2.5-2.5 1-1-2q2.6.7 1.5-2ZM132.5 356l3 4q-2.2.8-1.5-1.5zM52.5 357l1.5 3.5h-1zM235.5 357l-1 2zM461.5 357l5.5.5-5.5.5zM468.5 357l.5 2.5h-1zM34.5 358l1 2q-2.8.7-1-2ZM193.5 358l-3 4zM308.5 358l.5 1.5-1.5 2.5-.5-1.5zM324.5 358l2.5.5-2.5.5zM431.5 359l.5 42.5h-1zM440.5 359l1.5 1.5v40l-2 1 1-1v-37zM461.5 359l2.5 3.5-3-2zM118.5 360l-.5 1.5-.5 2.5-.5-2.5zM313.5 360l.5 12.5h-1zM328.5 360l.5 7.5h-1zM33.5 361l.5 4.5h-1zM178.5 361l2.5 1.5-1.5.5zM188.5 362l-1 2-5.5-.5zM303.5 362l2.5.5-2.5.5zM399.5 362l1 2zM252.5 363l.5 7.5h-1zM277.5 365l.5 2.5h-1zM53.5 366l.5 1.5-1.5 2.5-.5-1.5zM117.5 367l.5 4.5h-1zM176.5 368l4.5.5-4.5.5zM193.5 368l8.5 3.5-1.5.5-7-3zM285.5 368l1.5 2.5h-1zM369.5 368l-2 3zM171.5 369l2.5.5-2.5.5zM136.5 370l.5 2.5-3.5 4.5.5-1.5zM206.5 370l1 2zM373.5 370l3.5.5-3.5.5zM390.5 370l1.5.5-4.5 2.5v-1zM393.5 370l4.5 2.5-1.5-.5q-3.8-.2-3-2ZM166.5 372l1.5.5-4.5 3.5zM361.5 372l2.5 1.5-1.5.5z"/><path fill="#8fbbbb" stroke="#8fbbbb" d="m448 372 4 2.5v1.5h-4zM32.5 373l2.5 1.5-1.5-.5zM41.5 373l4.5.5-4.5.5zM54 373l2 .5-2 1zM402.5 373l.5 2.5h-1zM386.5 374l.5 27.5 1 1-2 1zM398.5 374l.5 23.5h-1zM26.5 375l-1 2zM205.5 375q4.1 1.9 3.5 8.5h-1v-3zM365.5 375l.5 8-3-.5 2-.5zM121.5 376q2.5 3 8.5 2.5l-5.5.5zM313.5 376l.5 15.5h-1zM29.5 377l-1 2zM48.5 377l2.5.5-3.5 1.5zM116.5 377l1 2zM162.5 377l.5 1.5-1.5 5.5-.5-4.5zM33.5 379l-1 2zM293.5 379l1 2zM369.5 379l.5 10.5h-1zM291.5 380l1 2zM119.5 382l2.5.5-2.5.5zM123.5 382l7.5 2.5-1.5.5-6-2zM258.5 382l2 3zM276.5 382l1 2zM19.5 383l-7 8zM40.5 383l-1 2zM253.5 383l-1 2zM23.5 384l-2 3zM44.5 384l-1 2zM155.5 384q2.3.8 1.5 4.5h-1l-.5-3.5-2 1v-1zM113.5 385l-2 3zM256.5 385l1 2zM27.5 386l-2 3zM132.5 386l4.5 3.5-1.5-.5-3-2zM281.5 386l1 2zM299.5 386l1 2zM402.5 386l.5 19.5h-1zM31.5 387l-2 3zM140.5 388q2.3-.7 1.5 1.5l.5 1.5zM180.5 388l2.5.5-2.5.5zM291.5 388l1 2zM35.5 389l-2 3zM174.5 389l2.5.5-8 3-.5 1.5-.5-1.5 2.5-2.5zM192.5 389l2.5.5-2.5.5zM299.5 389l1 2zM156.5 390l-2 3zM226.5 390l1 2zM38.5 391l-1 2zM231.5 391l1 2zM291.5 391l5.5 4.5-1.5-.5zM151.5 393l1.5.5-3.5 1.5v-1zM177.5 393l2.5.5-2.5.5zM187.5 393l.5 5.5h-1zM165.5 395l4 5zM313.5 395l.5 11.5h-1zM369.5 395l.5 7.5h-1zM6.5 396l-6 7zM328.5 396l.5 5 7 5.5-5.5-4.5-2.5-1.5zM127 397l2 .5-2 4 5 6-3-2-3-6zM107.5 398l.5 47h32.5q1.1-.1.5-5.5h1q.8 6.3-.5 6.5H107zM130.5 398l2.5 3.5-2-1zM241.5 398l1 2zM265.5 400l.5 44.5h-1zM305.5 400l1.5.5-2.5 1.5zM6.5 401l-5 6zM237.5 401l-1 2zM371.5 401l2.5.5-2.5.5zM375.5 401q5.8-.8 7.5 2.5l-1.5.5q-1-3-6-2zM391.5 401l5.5.5-5.5.5zM28.5 402l-10 11zM227.5 402l.5 3.5h-1zM306.5 402q2.3-.7 1.5 1.5zM431.5 403l-1.5 2.5-.5 1.5-1-2-2 1v-1zM134.5 404l5.5 7.5-3-2zM325.5 404l6.5 4.5-.5 1.5h-18v-1l17.5-.5-5.5-3.5zM340 404q3-1 2 2-3 1-2-2ZM141.5 405l.5 2.5h-1zM375.5 405l3.5 1.5-2.5.5zM440.5 405l-2 3zM445.5 405l-.5 1.5-.5 1.5-.5-1.5zM501.5 405l1 2zM343.5 406q2.3-.7 1.5 1.5zM371.5 406l1.5.5-3 2 7 1-8.5.5.5-1.5q-.7-2.2 1.5-1.5zM389.5 406l2.5.5-2.5.5zM395.5 406q5-.5 5.5 3.5l-14.5.5v-1l12.5-.5-3.5-1.5zM6.5 407l-3 4zM380.5 407q3 1.5 0 3l-2.5-.5 2-.5zM424 407l3 .5-.5 1.5 6.5.5-9.5.5.5-1.5zM448.5 407l7.5.5-7.5.5zM173.5 408l-1 2-1.5-.5zM335.5 408l8.5 1.5-9 .5zM132.5 409l1 2zM177.5 409l1 2zM451.5 409l4.5.5-4.5.5zM141.5 410l.5 2.5-2 1zM231.5 410l-1 2zM309.5 410l.5 3.5h-1zM351.5 410l4.5.5-4.5.5zM404.5 410l1.5 2.5-2 .5zM460 410l4 .5-3 1 6 1-7 .5zM351.5 412l6.5.5-6.5.5zM135.5 413l3.5 4.5-3-2zM160.5 413l3 4zM249.5 413l1.5.5-2.5 1.5zM228.5 414l-1 2zM9.5 415l-2 3z"/><path fill="#8fbbbb" stroke="#8fbbbb" d="m116.5 415 2 3q-2.2.8-1.5-1.5zM122.5 415l1.5 2.5-2-1zM232.5 415l-1 2zM205.5 416l-1 2zM313.5 417l14.5.5-14.5.5zM360.5 417l7.5.5-7.5.5zM456.5 417l7.5.5-7.5.5zM473.5 417l6.5.5-6.5.5zM245.5 418l-1 2zM249.5 419l-1 2zM309 419l3 .5-2.5 1.5zM318.5 419h2l4.5.5-7 1.5zM9.5 420l-2 3zM121.5 421l1 2zM126.5 421l1 2zM214.5 421l2.5.5-2.5.5zM156.5 422l2.5.5-2.5.5zM179.5 422l10.5.5-10.5.5zM485.5 422l1 2zM160.5 423l.5 7-11-.5 10-.5zM129.5 424l3 4zM172.5 425l2.5.5-2.5.5zM244.5 425l-4 5zM125.5 426l4 5q-2.2.8-1.5-1.5zM208.5 426l.5 3 4 .5-5 .5zM1.5 427l-1 2zM167.5 428l2.5.5-2.5.5zM131.5 431q1.3 2.8 5.5 2.5l-3.5.5zM148.5 433l2.5.5-2.5.5zM219.5 433l3.5.5-3.5.5zM139.5 434l2.5 1.5-1.5-.5zM230.5 437l1 2zM259.5 444l1 2zM101.5 456l2.5.5-2.5.5zM137.5 456l3.5.5-3.5.5zM145.5 457l.5 4.5h-1z"/></svg>